<?xml version="1.0" encoding="utf-8"?>
<!-- Generator: Adobe Illustrator 22.0.1, SVG Export Plug-In . SVG Version: 6.00 Build 0)  -->
<svg version="1.1" id="圖層_1" xmlns="http://www.w3.org/2000/svg" xmlns:xlink="http://www.w3.org/1999/xlink" x="0px" y="0px"
	 viewBox="0 0 2442.8 1936.4" style="enable-background:new 0 0 2442.8 1936.4;" xml:space="preserve">
<style type="text/css">
	.st0{fill:#789D9E;}
</style>
<g transform="translate(0.000000,2600.000000) scale(0.100000,-0.100000)">
	<path class="st0" d="M710,19141c55-195,152-419,244-560c199-308,453-480,709-481c311,0,608,226,819,624c58,110,136,303,161,401
		c9,32,18,64,21,73c6,13-99,15-984,15H690L710,19141z"/>
	<path class="st0" d="M3333,19181c14-67,69-226,112-327c154-361,392-624,646-716c414-150,839,131,1093,724c39,91,114,315,114,342
		c0,5-376,9-986,9h-986L3333,19181z"/>
	<path class="st0" d="M5958,19209c0-24,81-260,120-353c186-432,471-706,784-753c212-32,451,64,638,257c170,176,334,484,418,786
		l19,67h-990C6403,19213,5958,19211,5958,19209z"/>
	<path class="st0" d="M8598,19196c0-10,22-84,49-164c248-740,753-1096,1226-864c205,99,403,323,539,606c48,98,156,397,156,429
		c0,7-326,10-985,10C8652,19213,8598,19212,8598,19196z"/>
	<path class="st0" d="M11234,19186c20-88,103-315,154-418c187-383,453-621,745-665c226-35,485,82,677,304c158,182,295,449,371,719
		l25,87h-989h-989L11234,19186z"/>
	<path class="st0" d="M13884,19129c98-346,279-658,484-834c375-321,808-247,1139,193c89,117,150,224,210,366c44,103,98,259,115,332
		l6,27h-989h-989L13884,19129z"/>
	<path class="st0" d="M16503,19181c4-18,25-87,47-153c144-438,422-785,712-891c388-141,793,102,1051,631c50,102,155,394,155,429
		c0,14-99,16-986,16h-986L16503,19181z"/>
	<path class="st0" d="M19148,19145c137-493,416-875,731-1001c459-183,936,180,1174,893c30,90,55,167,55,170s-445,6-989,6h-990
		L19148,19145z"/>
	<path class="st0" d="M21768,19198c0-39,97-303,154-419c172-351,399-575,666-657c91-29,221-31,320-5c295,75,567,371,739,804
		c35,88,91,263,91,284c0,4-443,8-985,8C21886,19213,21768,19211,21768,19198z"/>
	<path class="st0" d="M8213,18530c-294-603-788-948-1319-924c-312,14-568,133-825,382c-155,150-289,338-397,558c-21,42-41,77-45,77
		s-17-24-29-52c-12-29-49-100-82-158c-236-412-551-677-924-777c-90-24-115-27-279-27s-189,3-279,27c-409,110-764,433-988,898
		c-24,49-45,89-48,89s-30-48-60-106c-171-334-395-584-662-740l-68-39v-5267V7203h3065h3065v4210v4210h1835h1835v-4220V7183h225h225
		v4220v4220h1835h1835v-4210V7203h3065h3065v5259v5259l-72,40c-280,154-524,420-693,755l-58,115l-58-113c-138-275-321-502-529-659
		c-151-114-315-190-510-238c-35-8-116-13-225-13c-153,1-181,4-275,28c-360,95-678,359-914,759c-31,53-70,127-87,163s-34,65-38,65
		s-16-22-28-49c-38-90-143-266-225-376c-146-196-328-358-518-459c-309-164-682-180-999-43c-333,145-639,464-823,860
		c-18,37-34,67-38,67c-3,0-23-35-44-77c-175-355-421-632-703-792c-165-94-324-139-519-148c-527-24-994,298-1304,899l-66,127l-43-87
		c-263-533-663-866-1121-933c-109-16-309-6-416,20c-226,55-418,167-613,356c-156,151-286,332-392,548c-24,48-46,87-49,87
		s-28-46-55-102c-106-218-294-467-451-599c-257-216-518-319-809-319c-507,0-957,326-1260,912l-61,117L8213,18530z M5646,15594
		c300-64,553-202,767-416c213-212,346-458,418-767c21-92,21-105,24-1435l4-1343H5343H3827l4,1343c3,1330,3,1343,24,1435
		c72,310,205,554,418,767c245,246,524,382,900,439C5250,15628,5555,15614,5646,15594z M19466,15594c300-64,553-202,768-416
		c211-211,338-443,416-760l22-90l3-1347l4-1348h-1516h-1516l4,1343l3,1342l22,97c69,302,206,553,417,763c245,246,524,382,900,439
		C19070,15628,19375,15614,19466,15594z"/>
	<path class="st0" d="M11369,11506c-65-23-136-98-155-164c-20-66-20-102-1-165c32-109,136-184,255-184c205,0,331,211,233,391
		C11637,11502,11500,11552,11369,11506z"/>
	<path class="st0" d="M12893,11499c-63-29-128-101-145-161c-16-56-9-149,14-196c22-47,78-103,125-125c47-23,140-30,196-14
		c102,29,185,143,185,255C13268,11451,13066,11580,12893,11499z"/>
	<g>
		<path class="st0" d="M17382.3,22686.9c-175.1,3.9-350.1-70-490.2-206.2c-136.2-132.3-214-307.3-214-482.4
			c0-377.4,303.5-688.6,676.9-692.5h3.9c190.6,0,365.7,73.9,494.1,202.3s198.4,299.6,198.4,486.3
			C18047.6,22430.1,17654.7,22683,17382.3,22686.9z"/>
		<path class="st0" d="M22965,21234c-409,833-1042,2123-1407,2867l-663,1352h-8661l-8661-1l-890-1816c-490-998-1122-2289-1405-2867
			l-516-1051l11470-3c6308-1,11471-1,11473,1C23706,19718,23373,20401,22965,21234z M9453.7,21087.9c0-81.7-62.2-147.8-140.1-155.6
			l-128.4-15.6c-42.8-3.9-89.5,7.8-120.6,38.9s-50.6,73.9-50.6,116.7v2233.1l-1151.6-2353.7c-27.2-50.6-81.7-85.6-140.1-85.6
			c-58.4,0-112.8,31.1-140.1,85.6l-1136,2334.2v-2190.3c0-62.2-42.8-120.6-101.2-143.9c-50.6-19.5-155.6-58.4-249,3.9
			c-42.8,27.2-93.4,81.7-97.3,190.6c0,23.3,0,42.8,0,66.1v19.5c0,933.7,0,1867.4,0,2801.1c0,23.3,3.9,50.6,3.9,73.9v27.2
			c3.9,70,54.5,128.4,124.5,143.9c245.1,50.6,322.9,31.1,431.8-190.6c256.8-529.1,517.4-1062.1,774.2-1591.2l396.8-820.9
			l1241,2532.7c27.2,50.6,81.7,85.6,140.1,85.6h182.8c85.6,0,155.6-70,159.5-155.6v-3050H9453.7z M11332.8,21403
			c-89.5-276.2-299.6-459.1-595.2-513.5c-54.5-11.7-108.9-15.6-163.4-15.6c-186.7,0-354,58.4-494.1,175.1
			c-143.9,120.6-163.4,202.3-151.7,404.6c3.9,66.1,46.7,120.6,108.9,140.1c58.4,19.5,128.4,0,167.3-50.6
			c11.7-19.5,27.2-35,38.9-50.6c23.3-27.2,46.7-54.5,66.1-77.8c120.6-128.4,354-147.8,498-35c66.1,50.6,105,116.7,108.9,190.6
			c3.9,70-19.5,136.2-73.9,190.6c-46.7,46.7-112.8,89.5-179,136.2c-19.5,11.7-38.9,23.3-58.4,38.9c-38.9,27.2-81.7,54.5-124.5,81.7
			c-77.8,50.6-159.5,101.2-237.3,167.3c-237.3,202.3-280.1,517.4-97.3,735.3c175.1,214,536.9,268.4,770.3,112.8
			c214-143.9,182.9-307.3,143.9-392.9c-15.6-42.8-50.6-70-89.5-85.6c-42.8-15.6-85.6-11.7-124.5,7.8c-27.2,15.6-54.5,31.1-81.7,46.7
			c-50.6,27.2-101.2,58.4-143.9,70c-54.5,15.6-105,0-128.4-46.7c-11.7-23.3-27.2-54.5,46.7-112.8c62.2-46.7,132.3-89.5,206.2-136.2
			c42.8-23.3,81.7-50.6,124.5-77.8c15.6-11.7,35-23.3,54.5-35c66.1-42.8,136.2-85.6,198.4-143.9
			C11340.5,21928.3,11414.5,21667.6,11332.8,21403z M12270.3,21157.9c-3.9-73.9-38.9-241.2-280.1-272.3c-7.8,0-11.7,0-19.5,0
			c-11.7,0-23.3,0-35,3.9c-210.1,50.6-256.8,182.8-256.8,284c0,81.7,35,163.4,97.3,217.9c66.1,54.5,151.7,81.7,237.3,70
			C12180.9,21438.1,12282,21317.5,12270.3,21157.9z M14379,21087.9c0-81.7-66.1-151.7-147.8-155.6l-120.6-7.8c-3.9,0-3.9,0-7.8,0
			c-42.8,0-81.7,15.6-108.9,42.8c-27.2,31.1-46.7,70-46.7,112.8v3061.8c0,85.6,70,155.6,155.6,155.6h120.6
			c85.6,0,155.6-70,155.6-155.6L14379,21087.9L14379,21087.9z M15398.2,21714.3c0-198.4,105-326.8,311.2-377.4
			c159.5-38.9,217.9-81.7,233.4-252.9c3.9-42.8-11.7-85.6-38.9-116.7c-27.2-31.1-66.1-50.6-108.9-54.5c-15.6,0-35,0-50.6,0
			c-412.4,0-750.8,303.5-797.5,727.5c-7.8,77.8-7.8,155.6-7.8,229.5v38.9c0,431.8,0,863.7,0,1299.4v424.1
			c0,81.7,66.1,151.7,147.8,155.6l140.1,7.8c42.8,3.9,85.6-11.7,116.7-42.8c31.1-27.2,50.6-70,50.6-112.8v-575.8
			c108.9,0,210.1,0,315.1,0c38.9,0,147.8,3.9,214-89.5c42.8-62.2,46.7-143.9,11.7-237.3c-19.5-62.2-77.8-101.2-143.9-101.2h-389
			c0-62.2,0-128.4-7.8-186.7C15394.3,22196.7,15394.3,21955.5,15398.2,21714.3z M18467.8,22897v-1813c0-85.6-70-155.6-155.6-155.6
			h-120.6c-81.7,0-151.7,66.1-155.6,147.8v38.9c-202.3-159.5-431.8-237.3-684.7-237.3c-50.6,0-97.3,3.9-147.8,7.8
			c-272.3,31.1-513.5,163.4-711.9,392.9c-389,451.3-350.1,1108.8,93.4,1528.9c412.4,392.9,929.8,408.5,1447.2,58.4
			c11.7,77.8,50.6,124.5,81.7,151.7c89.5,70,194.5,42.8,241.2,31.1C18425,23029.2,18471.7,22967,18467.8,22897z"/>
	</g>
</g>
</svg>
