<svg width="33" height="33" viewBox="0 0 33 33" fill="none" xmlns="http://www.w3.org/2000/svg">
<path d="M19.0129 0.000155206C18.8463 0.00275289 18.6818 0.0381183 18.5289 0.104232C18.3759 0.170345 18.2375 0.265912 18.1215 0.385475C18.0055 0.505038 17.9142 0.646256 17.8529 0.801066C17.7915 0.955876 17.7613 1.12125 17.7639 1.28773V2.5456H14.2746C12.0051 2.5456 10.1409 4.41101 10.1409 6.67575V7.62658H0V10.1621H10.1409V11.1129C10.1409 13.3805 12.0079 15.2431 14.2746 15.2431H17.7639V16.501C17.7639 18.6843 18.6114 20.0566 19.2459 21.0075C19.8803 21.9583 20.3016 22.4876 20.3016 24.1076C20.3016 25.7275 19.8803 26.2568 19.2459 27.2077C18.6114 28.1585 17.7639 29.5308 17.7639 31.7142C17.7615 31.8822 17.7926 32.049 17.8553 32.2049C17.918 32.3608 18.0111 32.5026 18.1291 32.6223C18.2472 32.7419 18.3879 32.8369 18.543 32.9018C18.6981 32.9666 18.8646 33 19.0327 33C19.2009 33 19.3674 32.9666 19.5225 32.9018C19.6776 32.8369 19.8183 32.7419 19.9364 32.6223C20.0544 32.5026 20.1475 32.3608 20.2102 32.2049C20.2729 32.049 20.304 31.8822 20.3016 31.7142C20.3016 30.0942 20.7229 29.5649 21.3573 28.6141C21.9917 27.6633 22.8393 26.2909 22.8393 24.1076C22.8393 21.9242 21.9917 20.5519 21.3573 19.601C20.7229 18.6502 20.3016 18.1209 20.3016 16.501V1.28773C20.3043 1.11791 20.2727 0.949288 20.2089 0.791872C20.1451 0.634455 20.0503 0.491454 19.9301 0.371358C19.8099 0.251262 19.6667 0.156519 19.5092 0.092753C19.3516 0.0289871 19.1829 -0.00250211 19.0129 0.000155206ZM24.0883 0.000155206C23.9217 0.00275272 23.7572 0.0381177 23.6043 0.104231C23.4513 0.170344 23.3129 0.265911 23.1969 0.385475C23.0809 0.505038 22.9896 0.646256 22.9283 0.801066C22.8669 0.955876 22.8367 1.12125 22.8393 1.28773V16.501C22.8369 16.6689 22.868 16.8357 22.9307 16.9916C22.9934 17.1475 23.0865 17.2894 23.2045 17.4091C23.3226 17.5287 23.4633 17.6237 23.6184 17.6885C23.7735 17.7534 23.94 17.7868 24.1081 17.7868C24.2763 17.7868 24.4428 17.7534 24.5979 17.6885C24.753 17.6237 24.8937 17.5287 25.0118 17.4091C25.1298 17.2894 25.2229 17.1475 25.2856 16.9916C25.3483 16.8357 25.3794 16.6689 25.377 16.501V1.28773C25.3797 1.11791 25.3481 0.949288 25.2843 0.791872C25.2205 0.634455 25.1257 0.491454 25.0055 0.371358C24.8853 0.251262 24.7422 0.156519 24.5846 0.092753C24.427 0.028987 24.2583 -0.00250194 24.0883 0.000155206ZM29.1637 0.000155206C28.9971 0.00275272 28.8326 0.0381177 28.6797 0.104231C28.5267 0.170344 28.3883 0.265911 28.2723 0.385475C28.1563 0.505038 28.065 0.646256 28.0037 0.801066C27.9423 0.955876 27.9121 1.12125 27.9147 1.28773V16.501C27.9123 16.6689 27.9434 16.8357 28.0061 16.9916C28.0688 17.1475 28.1619 17.2894 28.2799 17.4091C28.398 17.5287 28.5387 17.6237 28.6938 17.6885C28.8489 17.7534 29.0154 17.7868 29.1835 17.7868C29.3517 17.7868 29.5182 17.7534 29.6733 17.6885C29.8284 17.6237 29.9691 17.5287 30.0872 17.4091C30.2052 17.2894 30.2983 17.1475 30.361 16.9916C30.4237 16.8357 30.4548 16.6689 30.4524 16.501V15.253L33 15.2332L32.9802 12.6976L30.4524 12.7175V10.1621H32.9901V7.62658H30.4524V5.08113H32.9207V2.5456H30.4524V1.28773C30.455 1.11791 30.4235 0.949288 30.3597 0.791872C30.2959 0.634455 30.2011 0.491454 30.0809 0.371358C29.9607 0.251262 29.8175 0.156519 29.66 0.092753C29.5024 0.028987 29.3337 -0.00250194 29.1637 0.000155206ZM14.2746 5.08113H17.7639V7.62658H12.6786V6.67575C12.6786 5.78121 13.377 5.08113 14.2746 5.08113ZM12.6786 10.1621H17.7639V12.7076H14.2746C13.3793 12.7076 12.6786 12.0098 12.6786 11.1129V10.1621Z" fill="#C96759" fill-opacity="0.9"/>
</svg>
