<svg width="36" height="35" viewBox="0 0 36 35" fill="none" xmlns="http://www.w3.org/2000/svg">
<path d="M21.3961 0.00394037C18.196 0.0944465 15.1386 1.67744 12.2181 4.24746C6.53552 9.24901 5.44359 14.7991 5.35478 19.2984C5.31037 21.5481 5.47128 23.5609 5.40084 25.1541C5.3304 26.7473 5.0526 27.8016 4.37595 28.5397L0 32.9157L2.08433 35L6.43725 30.6413C6.44242 30.6368 6.44932 30.6343 6.45452 30.6298C7.23047 29.9571 8.31124 29.6822 9.90346 29.6107C11.5064 29.5387 13.5179 29.696 15.7592 29.6452C20.2416 29.5437 25.7478 28.4382 30.7468 22.7819C33.3244 19.8677 34.913 16.8112 35.0018 13.6097C35.0906 10.4082 33.617 7.25012 30.6835 4.31655C27.7499 1.38298 24.5961 -0.0865658 21.3961 0.00394037ZM21.4767 2.95195C23.7489 2.88768 26.0494 3.85116 28.5991 6.40088C31.1488 8.9506 32.1168 11.2561 32.0538 13.5291C31.9908 15.802 30.8399 18.2257 28.5415 20.8242C24.101 25.8486 19.7974 26.6042 15.6901 26.6972C13.8582 26.7387 12.1089 26.6411 10.4101 26.6742L13.4445 23.6398H20.2042V20.6918H16.3925L19.3405 17.7438H26.1002V14.7958H22.2885L27.1424 9.94195L25.0581 7.85761L20.2042 12.7115V8.89978H17.2562V15.6595L14.3082 18.6075V14.7958H11.3602V21.5555L8.34309 24.5726C8.36853 22.8964 8.26697 21.1702 8.30278 19.356C8.38421 15.2309 9.12775 10.9022 14.17 6.46422C16.777 4.17003 19.2045 3.01621 21.4767 2.95195Z" fill="#C96759" fill-opacity="0.9"/>
</svg>
