<?xml version="1.0" standalone="no"?>
<!DOCTYPE svg PUBLIC "-//W3C//DTD SVG 20010904//EN"
 "http://www.w3.org/TR/2001/REC-SVG-20010904/DTD/svg10.dtd">
<svg version="1.0" xmlns="http://www.w3.org/2000/svg"
 width="370.000000pt" height="370.000000pt" viewBox="0 0 370.000000 370.000000"
 preserveAspectRatio="xMidYMid meet">
<metadata>
Created by potrace 1.14, written by Peter Selinger 2001-2017
</metadata>
<g transform="translate(0.000000,370.000000) scale(0.100000,-0.100000)"
fill="#000000" stroke="none">
<path d="M1640 3690 c-25 -4 -63 -10 -85 -13 -149 -21 -335 -79 -489 -151
-440 -205 -795 -596 -956 -1051 -137 -390 -141 -816 -10 -1207 106 -316 300
-604 551 -817 94 -80 95 -81 189 -143 108 -72 209 -122 375 -188 71 -28 210
-68 260 -75 11 -1 47 -7 80 -13 106 -19 155 -23 294 -23 151 0 188 3 341 31
484 90 901 362 1184 771 171 250 284 557 313 851 9 94 9 292 0 386 -14 142
-75 390 -122 497 -8 17 -27 59 -43 95 -16 36 -47 96 -70 134 -23 37 -42 70
-42 73 0 3 -38 56 -84 118 -218 289 -545 526 -886 639 -103 34 -241 68 -330
81 -67 10 -418 14 -470 5z"/>
</g>
</svg>
