<?xml version="1.0" encoding="utf-8"?>
<!-- Generator: Adobe Illustrator 22.0.1, SVG Export Plug-In . SVG Version: 6.00 Build 0)  -->
<svg version="1.1" id="圖層_1" xmlns="http://www.w3.org/2000/svg" xmlns:xlink="http://www.w3.org/1999/xlink" x="0px" y="0px"
	 viewBox="0 0 489.7 177.6" style="enable-background:new 0 0 489.7 177.6;" xml:space="preserve">
<style type="text/css">
	.st0{fill:#3E4E31;}
	.st1{fill:#F0D577;stroke:#F0D577;stroke-width:3;stroke-linejoin:round;stroke-miterlimit:10;}
	.st2{fill:#A9D998;}
	.st3{fill:#5BA287;}
	.st4{fill:#F0D577;stroke:#F0D577;stroke-width:4;stroke-linejoin:round;stroke-miterlimit:10;}
	.st5{fill:#F0D577;}
	.st6{fill:#A8D898;}
	.st7{fill:#E65532;}
	.st8{fill:#5C8252;}
	.st9{fill:#FAE89F;}
	.st10{fill:#6EB559;}
	.st11{fill:#2CA253;}
	.st12{fill:#C1D47F;}
	.st13{fill:#D93924;}
	.st14{fill:#F19975;}
	.st15{fill:#FCDF99;}
	.st16{fill:#FACF7D;}
	.st17{fill:#A9D898;}
	.st18{fill:#5CA388;}
</style>
<g>
	<path class="st2" d="M33,51c0,4-2.6,6.7-6.4,6.8c-3.5,0.1-6.5-2.9-6.4-6.2c0.2-3.2,3.4-6.5,6.3-6.6C30.2,44.9,33,47.5,33,51z"/>
	<path class="st2" d="M86.4,22.8c-3.5,0-6.3-2.9-6.4-6.3c0-3.7,3-6.6,6.7-6.5c3.3,0.1,6.3,3.2,6.2,6.4
		C92.9,19.3,89.3,22.8,86.4,22.8z"/>
	<path class="st2" d="M128,22.6c0.1,3.4-2.3,6.1-5.6,6.2c-4,0.2-7.1-2.4-7.2-6c-0.1-3,3.4-6.8,6.1-6.8
		C124.8,16.1,127.9,19.1,128,22.6z"/>
	<path class="st2" d="M28.9,119.2c0.1,3.3-3.1,6.6-6.1,6.5c-3.1-0.1-6.5-3.3-6.6-6.3c-0.1-3.7,2.5-6.5,5.9-6.5
		C25.9,112.9,28.8,115.5,28.9,119.2z"/>
	<path class="st2" d="M77.1,154.9c3.8,0,6.6,2.5,6.8,5.8c0.1,3.2-3.5,7.1-6.6,6.9c-2.8-0.2-6.1-3.6-6.2-6.2
		C71,157.8,73.7,154.9,77.1,154.9z"/>
	<path class="st2" d="M51,147c0.1,3.1-2.7,5.8-6,5.9c-3.5,0.2-6.4-2.8-6.6-6.6c-0.1-2.7,2.7-5.4,5.8-5.5
		C48.1,140.7,50.8,143.2,51,147z"/>
	<path class="st2" d="M143.9,43.8c0.1-3.4,2.7-5.9,6-5.8c3.3,0,6.1,3.1,6,6.5c-0.1,3.1-3.3,6.3-6.5,6.3
		C146.5,50.7,143.8,47.4,143.9,43.8z"/>
	<path class="st2" d="M58.1,26.2c0.1,3.9-2.6,6.7-6.4,6.7c-3,0-5.6-2.6-5.7-5.7c-0.1-3.7,2.3-6.2,6.1-6.4
		C56.2,20.7,58,22.3,58.1,26.2z"/>
	<path class="st2" d="M119.1,159.4c-0.1,3.8-2,5.6-6,5.6c-3.7,0-6.2-2.7-6.1-6.3c0.1-3.2,2.9-5.7,6.3-5.7
		C117.1,152.8,119.2,155.2,119.1,159.4z"/>
	<path class="st2" d="M16,78.8c4,0,6.1,2.1,6.1,6.1c-0.1,3.5-2.5,5.9-5.9,6c-3.7,0-6.2-2.5-6.1-6.2C10.1,81.2,12.5,78.8,16,78.8z"/>
	<path class="st2" d="M150,140.8c0,3.5-2.7,6.2-6.3,6.1c-3.7-0.1-5.8-2.2-5.8-5.9c0-3.7,2.6-6.2,6.2-6.2
		C147.5,134.9,150,137.4,150,140.8z"/>
	<path class="st3" d="M41.8,85.1c0,2.4-2.5,4.7-4.9,4.6c-2.1-0.1-4.3-2.7-4.2-4.8c0-2.3,2.2-4.5,4.4-4.6
		C39.3,80.2,41.8,82.7,41.8,85.1z"/>
	<path class="st3" d="M108.1,144.3c-2.2,0.1-4.7-2.2-4.8-4.2c-0.1-2.3,2.3-4.8,4.7-4.9c2.5-0.1,4.8,2.2,4.7,4.7
		C112.7,142,110.3,144.3,108.1,144.3z"/>
	<path class="st3" d="M114.9,44.9c-2.8,0-4.8-2-4.8-4.6c0-2.3,2.1-4.3,4.6-4.3c2.4,0,4.7,2,4.7,4.2C119.5,43,117.7,44.9,114.9,44.9z
		"/>
	<path class="st3" d="M50.9,61.6c0,2.3-2.4,4.7-4.9,4.7c-2.3,0-4.5-2.2-4.4-4.5c0.1-2.1,2.4-4.7,4.4-4.8
		C48.3,56.8,50.8,59.2,50.9,61.6z"/>
	<path class="st3" d="M59,136.3c-2.2,0-4.5-2.4-4.4-4.6c0-2.2,2.3-4.6,4.4-4.7c2.6-0.1,5,2.2,4.9,4.6
		C63.8,134.3,61.6,136.3,59,136.3z"/>
	<path class="st3" d="M82,136.9c2.5-0.1,4.6,1.6,4.7,3.9c0.2,2.7-1.7,4.9-4.3,5c-2.6,0.1-5-2-5.1-4.3C77.2,139,79.2,137,82,136.9z"
		/>
	<path class="st3" d="M47,111.1c0,2.5-1.8,4.5-4.2,4.5c-2.4,0-4.7-2.3-4.7-4.8c0-2.3,2.1-4.4,4.4-4.5C45.2,106.2,47,108.2,47,111.1z
		"/>
	<path class="st3" d="M131.4,122.9c2.4,0.1,4.5,2.2,4.4,4.4c-0.1,2.6-2.5,4.8-4.9,4.6c-2.5-0.2-4.4-2.2-4.3-4.5
		C126.8,124.4,128.6,122.7,131.4,122.9z"/>
	<path class="st3" d="M88,29.8c2.7,0.1,4.2,1.6,4.1,4.4c0,2.5-1.9,4.5-4.2,4.5c-2.8,0-4.9-2-4.8-4.6C83.2,31.4,85,29.8,88,29.8z"/>
	<path class="st3" d="M64.3,38.9c2.4-0.1,4.4,1.8,4.6,4.2c0.2,2.3-1.8,4.5-4.2,4.7c-2.3,0.2-4.6-1.6-4.8-4
		C59.8,41.3,61.7,39,64.3,38.9z"/>
	<path class="st3" d="M139.9,56.3c0.1,2.3-1.8,4.4-4.3,4.6c-2.3,0.2-4.5-1.8-4.7-4.2c-0.2-2.4,1.7-4.6,4-4.8
		C137.5,51.6,139.8,53.7,139.9,56.3z"/>
	<g>
		<path class="st5" d="M247.8,54.2h-4.7c-1.5,0-2.9,0.9-3.6,2.2l-31.9,65.1l-10.2-21.1c-6.6-13.6-13.3-27.3-19.9-40.9
			c-2.8-5.7-4.8-6.2-11.1-4.9c-1.8,0.4-3.1,1.9-3.2,3.7l0,0.7c0,0.6-0.1,1.3-0.1,1.9c0,24,0,48,0,72l0,0.5c0,0.6,0,1.1,0,1.7
			c0.1,2.8,1.4,4.2,2.5,4.9c2.4,1.6,5.1,0.6,6.4,0.1c1.5-0.6,2.6-2.1,2.6-3.7V80.1l29.2,60c0.7,1.4,2.1,2.2,3.6,2.2c0,0,0,0,0,0
			c1.5,0,2.9-0.9,3.6-2.2l29.6-60.5V137c0,1.1,0.5,2.2,1.3,3c0.8,0.8,2,1.1,3.1,1l3.3-0.4c2-0.2,3.6-1.9,3.6-4V58.2
			C251.8,56,250,54.2,247.8,54.2z"/>
		<path class="st5" d="M480.7,86.2c-1.2-0.3-3.9-1-6.2,0.8c-0.8,0.7-1.8,1.9-2.1,3.9c-13.3-9-26.6-8.6-37.2,1.5
			c-11.4,10.8-12.4,27.7-2.4,39.3c5.1,5.9,11.3,9.3,18.3,10.1c1.3,0.1,2.5,0.2,3.8,0.2c6.5,0,12.4-2,17.6-6.1l0,1
			c0.1,2.1,1.9,3.8,4,3.8h3.1c2.2,0,4-1.8,4-4V90.1C483.7,88.3,482.5,86.7,480.7,86.2z M472.9,113.3c0,4.8-1.8,9.2-5.1,12.5
			c-3.3,3.3-7.8,5.2-12.7,5.2c0,0-0.1,0-0.1,0c-9.6-0.1-17.4-8.1-17.4-17.8c0-4.5,2-9,5.5-12.4c3.6-3.5,8.1-5.4,12.6-5.3
			C462.7,95.6,472.8,102.1,472.9,113.3z"/>
		<path class="st5" d="M294.8,109.9c-1.6-1.5-3.4-2.6-5.1-3.7c-0.5-0.3-1-0.6-1.4-0.9c-1.1-0.7-2.1-1.4-3.2-2
			c-1.9-1.2-3.7-2.3-5.3-3.5c-1.9-1.5-1.5-2.3-1.2-2.9c0.6-1.2,1.9-1.6,3.3-1.2c1.1,0.3,2.4,1.1,3.7,1.8c0.7,0.4,1.4,0.8,2.1,1.2
			c1,0.5,2.1,0.6,3.2,0.2c1-0.4,1.9-1.1,2.3-2.2c1-2.2,1.8-6.4-3.7-10.1c-6-4-15.3-2.6-19.8,2.9c-4.7,5.6-3.6,13.7,2.5,18.9
			c2,1.7,4.1,3,6.1,4.3c1.1,0.7,2.2,1.4,3.2,2.1c0.5,0.4,1,0.7,1.5,1c1.7,1.2,3.4,2.3,4.6,3.5c1.4,1.4,2,3.1,1.9,4.9
			c-0.1,1.9-1.1,3.6-2.8,4.9c-3.7,2.9-9.7,2.4-12.8-0.9c-0.5-0.6-1.1-1.3-1.7-2c-0.3-0.4-0.7-0.8-1-1.3c-1-1.3-2.8-1.8-4.3-1.3
			c-1.6,0.5-2.7,1.9-2.8,3.6c-0.3,5.2,0.2,7.3,3.9,10.4c3.6,3,7.9,4.5,12.7,4.5c1.4,0,2.8-0.1,4.2-0.4c7.6-1.4,13-6.1,15.3-13.2
			C302.3,121.7,300.4,115,294.8,109.9z"/>
		<path class="st5" d="M404.8,96.8h10c1.7,0,3.2-1,3.7-2.6c0.9-2.4,0.8-4.5-0.3-6.1c-1.7-2.4-4.5-2.3-5.5-2.3c-2.7,0-5.3,0-8.1,0V71
			c0-1.1-0.5-2.2-1.3-2.9c-0.8-0.8-1.9-1.2-3-1.1l-3.6,0.2c-2.1,0.1-3.8,1.9-3.8,4l0,10.9c0,11.2,0,22.3,0,33.4l0,1
			c0,1.9,0,3.9,0.2,5.9c1.2,10.9,9.9,18.7,20.5,18.7c0.4,0,0.9,0,1.3,0c1.1-0.1,2.1-0.6,2.8-1.4c0.7-0.8,1.1-1.9,1-3
			c-0.4-4.4-1.9-5.5-6-6.5c-5.3-1.3-8-4.6-8-9.7c-0.1-6.2-0.1-12.4-0.1-18.9C404.8,100.1,404.8,98.4,404.8,96.8z"/>
		<path class="st5" d="M374.5,54.1h-3.1c-2.2,0-4,1.8-4,4v78.7c0,1.1,0.5,2.1,1.2,2.9c0.7,0.7,1.7,1.1,2.8,1.1c0.1,0,0.1,0,0.2,0
			l3.1-0.2c2.1-0.1,3.8-1.9,3.8-4V58.1C378.5,55.9,376.7,54.1,374.5,54.1z"/>
		<path class="st5" d="M317.7,127c-2.2-0.3-4.4,0.4-6.1,1.8c-1.6,1.4-2.5,3.5-2.5,5.6c0,2.6,1.2,6,6.6,7.3c0.3,0.1,0.6,0.1,0.9,0.1
			c0.2,0,0.3,0,0.5,0c6.2-0.8,7.1-5.1,7.2-7C324.6,130.7,322,127.6,317.7,127z"/>
	</g>
</g>
</svg>
