<svg width="33" height="38" viewBox="0 0 33 38" fill="none" xmlns="http://www.w3.org/2000/svg">
<path d="M8.76923 0V8.76923H11.6923V0H8.76923ZM14.6154 2.92308V8.76923H17.5385V2.92308H14.6154ZM0 11.6923V30.6923C0 34.7115 3.28851 38 7.30769 38H19C23.0192 38 26.3077 34.7115 26.3077 30.6923V29.2308H27.7692C30.1735 29.2308 32.1538 27.2505 32.1538 24.8462V19C32.1538 16.5957 30.1735 14.6154 27.7692 14.6154H26.3077V11.6923H0ZM2.92308 14.6154H23.3846V30.6923C23.3846 33.1331 21.4408 35.0769 19 35.0769H7.30769C4.86688 35.0769 2.92308 33.1331 2.92308 30.6923V14.6154ZM26.3077 17.5385H27.7692C28.592 17.5385 29.2308 18.1772 29.2308 19V24.8462C29.2308 25.6689 28.592 26.3077 27.7692 26.3077H26.3077V17.5385Z" fill="#C96759" fill-opacity="0.9"/>
</svg>
