<svg width="44" height="33" viewBox="0 0 44 33" fill="none" xmlns="http://www.w3.org/2000/svg">
<path d="M18.8237 0.000316473C18.644 0.00363025 18.4662 0.0367076 18.2974 0.0982021L1.0648 6.36288C0.752749 6.47741 0.483349 6.68487 0.292944 6.95727C0.102539 7.22967 0.000292785 7.55391 0 7.88623V31.3788C0.00080648 31.8085 0.17192 32.2204 0.475868 32.5243C0.779816 32.8281 1.19183 32.9992 1.62167 33H42.3532C42.7831 32.9992 43.1951 32.8281 43.499 32.5243C43.803 32.2204 43.9741 31.8085 43.9749 31.3788V12.8845C44.0084 12.6963 44.0084 12.5037 43.9749 12.3155V11.0186C43.9747 10.6951 43.8779 10.3791 43.6969 10.1109C43.516 9.8428 43.259 9.6348 42.959 9.51357L19.4601 0.116556C19.2579 0.035548 19.0414 -0.00398212 18.8237 0.000316473ZM18.8237 3.35902L22.3118 4.75389L10.4154 9.51357C10.1155 9.6348 9.85851 9.8428 9.67753 10.1109C9.49655 10.3791 9.39977 10.6951 9.39959 11.0186V12.0219C9.26537 12.3851 9.26537 12.7843 9.39959 13.1476V25.1141C9.40039 25.5438 9.57151 25.9557 9.87545 26.2596C10.1794 26.5634 10.5914 26.7345 11.0213 26.7353H40.7315V29.7575H3.24335V9.02415L18.8237 3.35902ZM26.6811 6.50359L37.837 10.9635H15.5313L26.6811 6.50359ZM12.6429 14.206H40.7315V23.4929H12.6429V14.206Z" fill="#C96759" fill-opacity="0.9"/>
</svg>
