<svg width="36" height="36" viewBox="0 0 36 36" fill="none" xmlns="http://www.w3.org/2000/svg">
<path d="M10.8676 0.000115198C10.5426 0.00171986 10.2268 0.108855 9.96796 0.305396C9.70907 0.501937 9.52103 0.77725 9.43213 1.0899L7.77989 6.90791C7.72954 7.02406 7.69411 7.14612 7.67442 7.27117L0.0576834 34.088C-0.0150042 34.3424 -0.0190687 34.6116 0.0459031 34.8682C0.110875 35.1248 0.24257 35.3596 0.42762 35.5488C0.61267 35.738 0.844487 35.8749 1.09954 35.9455C1.35459 36.0162 1.6238 36.0181 1.87984 35.9511L34.8779 27.3266C35.2078 27.2402 35.4985 27.044 35.7019 26.7703C35.9053 26.4966 36.0094 26.1617 35.997 25.8209C35.997 25.8209 35.8095 19.9696 32.5929 13.8333C29.3763 7.69698 22.9318 1.17763 11.0199 0.00597423C10.9693 0.00144061 10.9184 -0.000514974 10.8676 0.000115198ZM11.9339 3.25774C21.9951 4.65042 27.1763 9.96902 29.9329 15.2277C32.2979 19.7395 32.7192 23.3591 32.839 24.7545L29.7747 25.5572C29.5061 23.7043 28.8775 20.7057 27.1791 17.4659C24.6844 12.7069 19.7626 7.70137 11.0727 6.28686L11.9339 3.25774ZM10.2524 9.18708C18.2733 10.3547 22.3164 14.6472 24.525 18.8603C26.1313 21.9247 26.6716 24.7826 26.8686 26.313L23.9918 27.063C23.994 27.0415 23.996 27.02 23.9977 26.9985C23.9977 26.2029 23.6816 25.4399 23.1191 24.8773C22.5565 24.3148 21.7935 23.9987 20.9979 23.9987C20.2023 23.9987 19.4392 24.3148 18.8767 24.8773C18.3141 25.4399 17.998 26.2029 17.998 26.9985C17.9999 27.5349 18.1456 28.0609 18.4199 28.5219L3.66099 32.383L5.33667 26.4771C5.54687 26.5399 5.73753 26.6236 5.99874 26.6236C7.65464 26.6236 8.99856 25.2796 8.99856 23.6237C8.99856 22.305 8.13137 21.219 6.9479 20.8173L10.2524 9.18708ZM14.9982 14.9992C14.2026 14.9992 13.4396 15.3153 12.877 15.8779C12.3144 16.4404 11.9984 17.2035 11.9984 17.9991C11.9984 18.7947 12.3144 19.5577 12.877 20.1203C13.4396 20.6828 14.2026 20.9989 14.9982 20.9989C15.7938 20.9989 16.5568 20.6828 17.1194 20.1203C17.682 19.5577 17.998 18.7947 17.998 17.9991C17.998 17.2035 17.682 16.4404 17.1194 15.8779C16.5568 15.3153 15.7938 14.9992 14.9982 14.9992Z" fill="#C96759" fill-opacity="0.9"/>
</svg>
