<svg width="25" height="36" viewBox="0 0 25 36" fill="none" xmlns="http://www.w3.org/2000/svg">
<path d="M1.63341 0L1.40625 1.10337C0.865385 3.76442 0 9.84375 0 12.4615C0 16.4099 1.39543 19.601 3.6887 21.7428C5.66827 23.5709 8.26442 24.5553 11.0769 24.8149V33.2308H5.53846V36H19.3846V33.2308H13.8462V24.8149C16.6587 24.5553 19.2548 23.5709 21.2344 21.7428C23.5276 19.601 24.9231 16.4099 24.9231 12.4615C24.9231 9.84375 24.0577 3.76442 23.5168 1.10337L23.2897 0H1.63341ZM3.98077 2.76923H20.9423C21.4399 5.57091 22.1538 10.7416 22.1538 12.4615C22.1538 15.7825 21.0613 18.119 19.3522 19.7091C17.643 21.2993 15.2308 22.1538 12.4615 22.1538C9.69231 22.1538 7.28005 21.2993 5.57091 19.7091C3.86178 18.119 2.76923 15.7825 2.76923 12.4615C2.76923 11.6611 2.94231 10.0276 3.15865 8.30769H16.6154V5.53846H3.56971C3.71034 4.57572 3.85096 3.50481 3.98077 2.76923Z" fill="#C96759" fill-opacity="0.9"/>
</svg>
